<svg width="344" height="139" viewBox="0 0 344 139" fill="none" xmlns="http://www.w3.org/2000/svg">
<g filter="url(#filter0_d_128_105)">
<path d="M308.226 49.8118C311.55 52.2417 313.7 55.6058 314.452 59.5539L314.462 59.5507C314.825 61.4744 315.01 63.4436 315.01 65.4161V94.5839C315.01 96.5564 314.825 98.5288 314.462 100.44C313.706 104.414 311.44 107.898 308.08 110.256C305.052 112.381 301.261 113.367 296.145 113.367C292.918 113.367 290.12 112.916 287.695 112.002C285.156 112.91 282.27 113.367 279.102 113.367C274.767 113.367 270.561 112.378 266.605 110.422C262.99 108.637 259.741 106.172 256.933 103.106C255.863 106.071 253.92 108.608 251.216 110.532C248.188 112.683 244.258 113.724 239.183 113.724C234.108 113.724 230.172 112.68 227.153 110.532C223.726 108.096 221.518 104.667 220.769 100.615C220.412 98.704 220.23 96.6991 220.23 94.6715L219.926 94.7624C219.926 96.738 219.741 98.7072 219.378 100.618C218.619 104.592 216.356 108.076 212.996 110.435C209.968 112.56 206.077 113.546 201.061 113.546C196.044 113.546 192.137 112.501 189.118 110.354C185.681 107.911 183.418 104.336 182.743 100.287C182.737 100.258 182.734 100.232 182.731 100.203C181.446 102.652 180.61 104.242 180.61 104.242C178.985 107.434 176.521 110.003 173.473 111.68C170.675 113.218 167.371 113.994 163.921 113.994C160.471 113.994 157.303 113.234 154.511 111.736C151.388 110.062 148.872 107.47 147.231 104.242C147.231 104.242 146.917 103.642 146.375 102.61C145.331 105.753 143.301 108.482 140.516 110.438C137.487 112.563 133.596 113.549 128.58 113.549C123.564 113.549 119.657 112.504 116.638 110.357C113.201 107.914 110.938 104.339 110.263 100.29C110.133 99.5215 110.036 98.7332 109.962 97.9384C109.871 98.8402 109.748 99.7388 109.579 100.621C108.814 104.644 106.492 108.154 103.045 110.513C100.013 112.586 96.1905 113.549 91.1743 113.549C86.1581 113.549 82.2509 112.504 79.2321 110.357C79.0245 110.208 78.8202 110.055 78.6225 109.899C78.389 110.084 78.149 110.263 77.9026 110.438C74.8773 112.563 70.9247 113.549 65.9701 113.549C61.0155 113.549 57.1374 112.504 54.1186 110.357C50.6977 107.927 48.4345 104.381 47.7535 100.378C47.4455 98.5807 47.2866 96.6861 47.2866 94.7656V64.459H45.5194C43.7328 64.459 41.9526 64.2806 40.2244 63.9335C36.5019 63.1906 33.321 61.1144 31.0383 57.9286C28.9955 55.0933 28 51.369 28 46.7526C28 42.1363 28.9955 38.5093 31.0447 35.6577C33.3664 32.4234 36.7678 30.2855 40.6199 29.6431C42.2672 29.3674 43.9468 29.2279 45.607 29.2279H86.6023C88.3533 29.2279 90.0654 29.3739 91.6899 29.6594C95.4318 30.3212 98.7651 32.4493 101.071 35.6545C103.068 38.4412 104.06 41.9838 104.112 46.4769C105.464 46.2303 106.865 46.1006 108.308 46.1006C108.788 46.1006 109.294 46.1168 109.835 46.1525C109.816 45.6951 109.806 45.2376 109.806 44.7802C109.806 42.7234 109.994 40.7186 110.364 38.824C111.132 34.8694 113.447 31.3885 116.884 29.0365C119.871 26.9927 123.609 26 128.668 26C133.726 26 137.653 27.0706 140.665 29.2668C143.989 31.6934 146.139 35.0576 146.891 39.0057C147.254 40.9294 147.439 42.8986 147.439 44.871C147.439 45.2309 147.426 45.5908 147.413 45.9507C148.243 45.8339 149.057 45.7762 149.861 45.7762C151.203 45.7762 152.52 45.9384 153.768 46.2628C157.935 47.3463 161.336 50.1817 163.917 54.7105C166.625 49.9416 170.175 47.0511 174.514 46.0876C175.607 45.8443 176.748 45.721 177.909 45.721C179.336 45.721 180.798 45.9027 182.312 46.2725C182.293 45.7762 182.28 45.2798 182.28 44.7802C182.28 42.7234 182.468 40.7186 182.838 38.824C183.606 34.8694 185.921 31.3885 189.358 29.0365C192.345 26.9927 196.083 26 201.142 26C206.2 26 210.127 27.0706 213.139 29.2668C213.447 29.4907 213.742 29.7242 214.027 29.9643C215.568 29.2928 217.072 28.8386 218.561 28.6018C219.41 28.4688 220.26 28.4006 221.093 28.4006C224.254 28.4006 227.312 29.3642 229.939 31.1873C232.267 32.8062 234.277 35.0349 236.09 38.0032L239.105 42.8597C239.105 42.8597 242.416 37.7599 242.422 37.7502C244.348 34.8078 246.369 32.6342 248.599 31.103C251.155 29.3479 254.141 28.4201 257.231 28.4201C258.181 28.4201 259.144 28.5077 260.101 28.6796C262.847 29.1792 265.671 30.386 268.745 32.3682C268.801 32.4029 268.854 32.4392 268.909 32.476C268.931 32.4908 268.953 32.5058 268.975 32.5207C274.17 36.0665 277.153 40.2579 277.841 44.9813C277.922 45.5393 277.97 46.0973 277.99 46.6586C278.356 46.6456 278.723 46.6358 279.092 46.6358C282.143 46.6358 284.948 47.0933 287.438 47.9951C289.935 47.0219 292.841 46.545 296.226 46.545C301.287 46.545 305.214 47.6156 308.226 49.8118Z" fill="white"/>
</g>
<path d="M86.5989 39.9335C87.7338 39.9335 88.8103 40.0243 89.8285 40.2027C90.8434 40.3812 91.6962 40.9521 92.3836 41.9091C93.071 42.8662 93.4147 44.5109 93.4147 46.8434C93.4147 49.176 93.071 50.7461 92.3836 51.7356C91.6962 52.7218 90.8272 53.3057 89.7831 53.4842C88.7357 53.6626 87.643 53.7534 86.5081 53.7534H74.1281V94.8564C74.1281 96.1735 74.0082 97.4452 73.7682 98.6715C73.5283 99.8978 72.8571 100.9 71.7514 101.679C70.6456 102.454 68.7163 102.847 65.9667 102.847C63.217 102.847 61.4498 102.441 60.3149 101.637C59.1768 100.829 58.5056 99.8134 58.2981 98.5839C58.0873 97.3576 57.9835 96.0859 57.9835 94.7688V53.7567H45.516C44.4395 53.7567 43.3759 53.6529 42.3318 53.442C41.2845 53.2344 40.4187 52.6504 39.7313 51.6934C39.0439 50.7364 38.7002 49.0916 38.7002 46.7591C38.7002 44.4266 39.0439 42.8694 39.7313 41.9124C40.4187 40.9554 41.3007 40.3876 42.3772 40.206C43.4538 40.0276 44.5303 39.9367 45.6068 39.9367H86.5989V39.9335Z" fill="#F750B7"/>
<path d="M91.1742 102.843C88.4829 102.843 86.5698 102.438 85.4349 101.633C84.2968 100.825 83.6256 99.7809 83.418 98.493C83.2073 97.2083 83.1035 95.9074 83.1035 94.5903V65.3348C83.1035 63.9593 83.2235 62.6584 83.4634 61.4321C83.7001 60.2059 84.3908 59.2034 85.5257 58.4248C86.6606 57.6495 88.5769 57.257 91.2682 57.257C93.9595 57.257 95.7689 57.6171 96.8746 58.334C97.9803 59.051 98.6547 59.8458 98.8914 60.712C99.1281 61.5814 99.2513 62.2529 99.2513 62.7298L97.8149 62.1913C98.7714 61.1142 99.7118 60.2156 100.639 59.4986C101.567 58.7817 102.672 58.1523 103.959 57.6138C105.244 57.0753 106.696 56.806 108.311 56.806C108.849 56.806 109.52 56.8514 110.328 56.9423C111.135 57.0331 112.001 57.1986 112.928 57.4354C113.856 57.6755 114.721 58.0356 115.529 58.5124C116.336 58.9926 116.994 59.6219 117.504 60.3973C118.009 61.1759 118.266 62.1329 118.266 63.2683C118.266 66.2594 117.624 68.8028 116.336 70.8952C115.049 72.9909 113.36 74.0356 111.268 74.0356C110.13 74.0356 109.323 73.9609 108.846 73.8117C108.366 73.6625 108.022 73.5132 107.815 73.364C107.604 73.2148 107.367 73.0656 107.098 72.9163C106.829 72.7671 106.336 72.6925 105.62 72.6925C104.721 72.6925 103.901 72.7963 103.152 73.0072C102.403 73.218 101.745 73.5327 101.177 73.948C100.61 74.3664 100.175 74.8596 99.8771 75.4273C99.5756 75.9982 99.4297 76.6081 99.4297 77.2667V94.7655C99.4297 96.0826 99.3097 97.3673 99.0698 98.626C98.8298 99.8815 98.1424 100.9 97.0075 101.679C95.8694 102.454 93.9271 102.847 91.1774 102.847L91.1742 102.843Z" fill="#F750B7"/>
<path d="M128.58 52.9456C125.889 52.9456 123.976 52.5401 122.841 51.7355C121.703 50.9277 121.031 49.8961 120.824 48.6406C120.613 47.3852 120.509 46.0972 120.509 44.7801C120.509 43.463 120.629 42.1037 120.869 40.8775C121.106 39.6512 121.797 38.6487 122.931 37.8702C124.066 37.0916 125.983 36.7023 128.671 36.7023C131.359 36.7023 133.259 37.1078 134.368 37.9123C135.474 38.7201 136.145 39.7517 136.385 41.0072C136.621 42.2627 136.745 43.5506 136.745 44.8677C136.745 46.1848 136.625 47.4695 136.385 48.7282C136.145 49.9837 135.474 51.0024 134.368 51.7809C133.259 52.5595 131.333 52.9488 128.583 52.9488L128.58 52.9456ZM128.58 102.843C125.889 102.843 123.976 102.438 122.841 101.633C121.703 100.826 121.031 99.7939 120.824 98.5384C120.613 97.283 120.509 95.9951 120.509 94.6779V65.4225C120.509 64.1086 120.629 62.8369 120.869 61.6074C121.106 60.3811 121.797 59.3624 122.931 58.5547C124.066 57.7469 125.983 57.3414 128.671 57.3414C131.359 57.3414 133.259 57.7469 134.368 58.5547C135.474 59.3624 136.145 60.3941 136.385 61.6496C136.621 62.905 136.745 64.2221 136.745 65.5976V94.7655C136.745 96.0826 136.625 97.3673 136.385 98.626C136.145 99.8815 135.474 100.9 134.368 101.679C133.259 102.454 131.333 102.847 128.583 102.847L128.58 102.843Z" fill="#F750B7"/>
<path d="M163.92 103.291C162.244 103.291 160.794 102.96 159.569 102.305C158.343 101.646 157.399 100.66 156.744 99.343L140.869 69.0981C139.553 66.5255 139.134 64.3714 139.614 62.6358C140.091 60.9002 141.706 59.3754 144.459 58.0583C147.27 56.6828 149.481 56.2059 151.096 56.6212C152.711 57.0397 154.176 58.7461 155.493 61.7372L163.923 80.9424L172.354 61.7372C173.729 58.6261 175.224 56.8904 176.838 56.5336C178.453 56.1767 180.635 56.6828 183.385 58.0583C186.196 59.4338 187.811 61.004 188.23 62.7688C188.648 64.5336 188.23 66.6423 186.975 69.0948L171.099 99.3398C170.441 100.657 169.514 101.643 168.317 102.302C167.121 102.96 165.655 103.288 163.92 103.288V103.291Z" fill="#F750B7"/>
<path d="M201.057 52.9456C198.366 52.9456 196.453 52.5401 195.318 51.7355C194.18 50.9277 193.508 49.8961 193.301 48.6406C193.09 47.3852 192.986 46.0972 192.986 44.7801C192.986 43.463 193.106 42.1037 193.346 40.8775C193.583 39.6512 194.274 38.6487 195.408 37.8702C196.543 37.0916 198.46 36.7023 201.148 36.7023C203.836 36.7023 205.736 37.1078 206.845 37.9123C207.951 38.7201 208.622 39.7517 208.862 41.0072C209.098 42.2627 209.222 43.5506 209.222 44.8677C209.222 46.1848 209.102 47.4695 208.862 48.7282C208.622 49.9837 207.951 51.0024 206.845 51.7809C205.736 52.5595 203.81 52.9488 201.06 52.9488L201.057 52.9456ZM201.057 102.843C198.366 102.843 196.453 102.438 195.318 101.633C194.18 100.826 193.508 99.7939 193.301 98.5384C193.09 97.283 192.986 95.9951 192.986 94.6779V65.4225C192.986 64.1086 193.106 62.8369 193.346 61.6074C193.583 60.3811 194.274 59.3624 195.408 58.5547C196.543 57.7469 198.46 57.3414 201.148 57.3414C203.836 57.3414 205.736 57.7469 206.845 58.5547C207.951 59.3624 208.622 60.3941 208.862 61.6496C209.098 62.905 209.222 64.2221 209.222 65.5976V94.7655C209.222 96.0826 209.102 97.3673 208.862 98.626C208.622 99.8815 207.951 100.9 206.845 101.679C205.736 102.454 203.81 102.847 201.06 102.847L201.057 102.843Z" fill="#F750B7"/>
<path d="M262.947 41.3673C265.577 43.1613 267.013 44.884 267.253 46.5287C267.49 48.1735 266.835 50.1329 265.279 52.4071L247.428 79.1516V94.8564C247.428 96.1735 247.309 97.4582 247.069 98.7169C246.829 99.9724 246.141 101.004 245.006 101.812C243.868 102.62 241.926 103.022 239.176 103.022C236.427 103.022 234.481 102.616 233.346 101.812C232.208 101.004 231.521 99.9594 231.284 98.6715C231.044 97.3868 230.924 96.0535 230.924 94.678V79.1516L213.074 52.4071C211.397 50.0746 210.742 48.0697 211.099 46.3957C211.459 44.7218 212.921 43.0445 215.496 41.3706C217.348 40.1151 218.933 39.3819 220.25 39.1711C221.563 38.9634 222.763 39.2327 223.839 39.9789C224.916 40.7282 225.96 41.9383 226.978 43.6123L238.907 62.8175L251.375 43.6123C252.51 41.8767 253.602 40.6504 254.65 39.9334C255.694 39.2165 256.877 38.9764 258.194 39.2165C259.507 39.4565 261.093 40.1735 262.947 41.3706V41.3673Z" fill="#363636"/>
<path d="M296.135 102.665C293.444 102.665 291.456 102.217 290.169 101.319C288.881 100.42 288.269 99.4046 288.33 98.2659H289.585C289.287 98.6844 288.703 99.2391 287.837 99.9269C286.968 100.615 285.82 101.244 284.384 101.812C282.948 102.379 281.184 102.665 279.092 102.665C276.401 102.665 273.813 102.052 271.333 100.825C268.849 99.5992 266.638 97.909 264.695 95.7549C262.75 93.6008 261.21 91.1645 260.075 88.4394C258.937 85.7176 258.369 82.8628 258.369 79.8685C258.369 76.8741 258.937 74.1231 260.075 71.4338C261.21 68.7411 262.766 66.334 264.737 64.2091C266.712 62.0875 268.924 60.4102 271.375 59.184C273.826 57.9577 276.398 57.3445 279.089 57.3445C281.122 57.3445 282.841 57.6463 284.248 58.2432C285.652 58.8433 286.79 59.4986 287.656 60.2188C288.521 60.9358 289.105 61.536 289.403 62.0128H288.418C288.356 60.5173 288.969 59.3527 290.256 58.5124C291.54 57.6755 293.531 57.257 296.222 57.257C298.914 57.257 300.811 57.6625 301.92 58.467C303.025 59.2748 303.7 60.3064 303.936 61.5619C304.173 62.8174 304.296 64.1053 304.296 65.4224V94.5903C304.296 95.9074 304.176 97.1921 303.936 98.4508C303.697 99.7063 303.025 100.725 301.92 101.504C300.814 102.279 298.885 102.671 296.135 102.671V102.665ZM281.336 86.4216C282.471 86.4216 283.502 86.1231 284.429 85.523C285.357 84.9261 286.103 84.1312 286.673 83.145C287.241 82.1588 287.526 81.098 287.526 79.9593C287.526 78.7622 287.241 77.6852 286.673 76.7282C286.106 75.7712 285.341 74.9926 284.387 74.3956C283.431 73.7987 282.354 73.497 281.158 73.497C279.961 73.497 278.872 73.7955 277.883 74.3956C276.897 74.9958 276.103 75.7874 275.506 76.7736C274.906 77.7598 274.608 78.8531 274.608 80.0501C274.608 81.2472 274.922 82.2334 275.548 83.1905C276.177 84.1475 276.997 84.9261 278.016 85.523C279.031 86.1231 280.136 86.4216 281.336 86.4216Z" fill="#363636"/>
<defs>
<filter id="filter0_d_128_105" x="14" y="16" width="315.01" height="115.994" filterUnits="userSpaceOnUse" color-interpolation-filters="sRGB">
<feFlood flood-opacity="0" result="BackgroundImageFix"/>
<feColorMatrix in="SourceAlpha" type="matrix" values="0 0 0 0 0 0 0 0 0 0 0 0 0 0 0 0 0 0 127 0" result="hardAlpha"/>
<feOffset dy="4"/>
<feGaussianBlur stdDeviation="7"/>
<feComposite in2="hardAlpha" operator="out"/>
<feColorMatrix type="matrix" values="0 0 0 0 0 0 0 0 0 0 0 0 0 0 0 0 0 0 0.25 0"/>
<feBlend mode="normal" in2="BackgroundImageFix" result="effect1_dropShadow_128_105"/>
<feBlend mode="normal" in="SourceGraphic" in2="effect1_dropShadow_128_105" result="shape"/>
</filter>
</defs>
</svg>
