<svg width="255" height="92" viewBox="0 0 255 92" fill="none" xmlns="http://www.w3.org/2000/svg">
<path d="M240.082 49.0331C241.413 46.8375 242.176 44.231 242.176 41.4092C242.176 35.2374 238.274 29.8952 231.468 26.7447C227.135 24.7409 221.73 23.6372 216.247 23.6372C209.621 23.6372 203.872 25.3475 199.508 28.3375C196.843 25.3788 192.901 23.6372 188.209 23.6372C182.6 23.6372 178.064 26.1263 175.501 30.2044C172.937 26.1263 168.401 23.6372 162.793 23.6372C161.219 23.6372 159.736 23.8368 158.35 24.2086C158.343 15.8216 151.517 9 143.126 9C134.735 9 128.218 15.5241 127.917 23.6528C127.721 23.645 127.522 23.6372 127.322 23.6372C122.003 23.6372 117.522 26.1106 114.794 30.3413C112.066 26.1106 107.585 23.6372 102.266 23.6372C102.066 23.6372 101.867 23.645 101.671 23.6528C101.37 15.5202 94.6652 9 86.4619 9C78.2586 9 71.5386 15.5398 71.2529 23.6842C70.8654 23.6568 70.474 23.6411 70.0748 23.6411C68.4115 23.6411 65.7853 23.8994 62.9791 25.1714C61.0027 24.1851 58.7444 23.6411 56.31 23.6411C53.1711 23.6411 50.3258 24.553 48.001 26.138C47.6566 25.9737 47.3044 25.8171 46.9326 25.6723C45.9932 18.0915 40.0247 12.7884 32.0562 12.7884C24.0877 12.7884 17.6574 18.5063 17.0899 26.5607C16.4911 26.9208 15.9275 27.3239 15.3952 27.7779C12.5616 30.1965 11 33.7423 11 37.7695C11 41.7967 12.5616 45.3464 15.3913 47.7612C15.9118 48.2034 16.4637 48.6026 17.0429 48.9548V63.8464C17.0429 71.3724 20.1896 75.7753 22.8314 78.1431C26.4282 81.368 31.4144 83.0039 37.6569 83.0039C41.8798 83.0039 45.3122 82.2016 48.1458 80.5618C50.5293 82.1273 53.4843 83.0039 56.8149 83.0039C64.7677 83.0039 70.5601 78.0022 71.6364 70.5623C72.7127 78.0022 78.5051 83.0039 86.458 83.0039C92.5322 83.0039 97.3462 80.0882 99.7649 75.3918C100.653 77.1412 102.098 79.1842 104.587 80.7222C107.823 82.726 111.405 83 114.794 83C118.183 83 121.764 82.7221 125.001 80.7222C127.486 79.1842 128.93 77.1373 129.823 75.3918C132.238 80.0843 137.052 83.0039 143.13 83.0039C148.265 83.0039 152.495 80.9179 155.141 77.4387C155.27 77.5561 155.399 77.6656 155.529 77.7752C159.587 81.1958 164.894 83.0039 170.879 83.0039C174.534 83.0039 177.919 82.3268 181.011 80.9845C183.191 82.2838 185.806 83.0039 188.722 83.0039C193.262 83.0039 197.07 81.2584 199.645 78.2957C204.416 81.2506 210.764 83.0039 217.926 83.0039C233.037 83.0039 244.004 73.5993 244.004 60.6411C244.004 56.2891 242.642 52.3167 240.09 49.037L240.082 49.0331Z" fill="white"/>
<path d="M27.0429 41.5816H25.223C22.2368 41.5816 21 40.4153 21 38.0867C21 35.758 22.2368 34.5918 25.223 34.5918H27.0429V28.1107C27.0429 24.6158 29.1564 22.792 32.3617 22.792C35.5671 22.792 37.6806 24.6119 37.6806 28.1107V34.5918H40.886C44.017 34.5918 45.6921 35.5389 45.6921 38.0867C45.6921 40.6345 44.017 41.5816 40.886 41.5816H37.6806V62.8486C37.6806 64.4493 38.5534 65.3259 40.4476 65.3259H41.9779C44.3106 65.3259 45.6921 66.637 45.6921 68.8952C45.6921 71.9557 43.0699 73.6308 37.9702 73.6308C30.2483 73.6308 27.0468 70.4255 27.0468 64.1636V41.5855L27.0429 41.5816Z" fill="#EC4CAF"/>
<path d="M51.8057 38.5954C51.8057 35.39 53.9191 33.6445 56.6118 33.6445C59.3045 33.6445 61.418 35.394 61.418 38.5954V42.6734H61.5628C62.7995 38.2314 65.2026 33.6406 70.3766 33.6406C73.7268 33.6406 76.2043 35.8245 76.2043 38.8106C76.2043 42.7439 73.582 44.1293 70.9598 44.1293H69.0655C64.7682 44.1293 62.4356 47.1155 62.4356 55.9291V68.312C62.4356 71.1533 61.2692 73.6307 57.1167 73.6307C52.9642 73.6307 51.7979 71.1533 51.7979 68.312V38.5954H51.8057Z" fill="#EC4CAF"/>
<path d="M86.7675 19C89.8281 19 92.3016 21.4774 92.3016 24.534C92.3016 27.5905 89.8242 30.0679 86.7675 30.0679C83.7108 30.0679 81.2334 27.5905 81.2334 24.534C81.2334 21.4774 83.7108 19 86.7675 19ZM81.4487 38.9598C81.4487 36.1185 82.615 33.6411 86.7675 33.6411C90.92 33.6411 92.0864 36.1185 92.0864 38.9598V68.3125C92.0864 71.1538 90.92 73.6312 86.7675 73.6312C82.615 73.6312 81.4487 71.1538 81.4487 68.3125V38.9598Z" fill="#EC4CAF"/>
<path d="M98.055 41.8711C97.7654 40.9984 97.3975 39.8321 97.3975 39.1746C97.3975 35.3861 100.02 33.6406 102.568 33.6406C106.575 33.6406 107.593 36.9907 107.886 38.0827L115.025 62.1166H115.17L122.309 38.0827C122.598 36.9907 123.62 33.6406 127.628 33.6406C130.176 33.6406 132.798 35.39 132.798 39.1746C132.798 39.8321 132.434 40.9944 132.144 41.8711L122.094 69.8383C121.072 72.6797 120.418 73.6268 115.1 73.6268C109.781 73.6268 109.127 72.6797 108.106 69.8383L98.055 41.8711Z" fill="#EC4CAF"/>
<path d="M143.432 19C146.492 19 148.966 21.4774 148.966 24.534C148.966 27.5905 146.488 30.0679 143.432 30.0679C140.375 30.0679 137.897 27.5905 137.897 24.534C137.897 21.4774 140.375 19 143.432 19ZM138.113 38.9598C138.113 36.1185 139.279 33.6411 143.432 33.6411C147.584 33.6411 148.75 36.1185 148.75 38.9598V68.3125C148.75 71.1538 147.584 73.6312 143.432 73.6312C139.279 73.6312 138.113 71.1538 138.113 68.3125V38.9598Z" fill="#EC4CAF"/>
<path d="M193.833 68.3081C193.833 71.5134 192.377 73.6268 189.027 73.6268C185.677 73.6268 184.221 71.5134 184.221 68.3081V66.9226H184.076C181.09 70.8559 177.231 73.6229 171.184 73.6229C164.773 73.6229 157.783 70.4175 157.783 59.6393V38.9554C157.783 36.1141 158.95 33.6367 163.102 33.6367C167.255 33.6367 168.421 36.1141 168.421 38.9554V57.5298C168.421 61.827 170.534 64.8875 175.121 64.8875C178.836 64.8875 183.207 61.827 183.207 56.5122V38.9593C183.207 36.118 184.374 33.6406 188.526 33.6406C192.679 33.6406 193.845 36.118 193.845 38.9593V68.312L193.833 68.3081Z" fill="#474747"/>
<path d="M216.557 33.6406C224.643 33.6406 232.799 36.8459 232.799 41.7263C232.799 44.2037 231.124 46.3875 228.357 46.3875C224.205 46.3875 224.06 41.5071 217.359 41.5071C213.645 41.5071 211.242 42.5286 211.242 44.7829C211.242 47.2603 213.645 47.8434 216.925 48.5713L221.367 49.5928C227.414 50.9783 234.623 53.5261 234.623 60.9542C234.623 69.6231 226.248 73.6268 218.236 73.6268C208.624 73.6268 200.608 69.3295 200.608 64.0852C200.608 61.7526 201.92 59.6432 204.906 59.6432C209.493 59.6432 209.931 66.1986 217.798 66.1986C221.586 66.1986 223.989 64.5235 223.989 62.3397C223.989 59.6432 221.657 59.2087 217.872 58.2616L211.61 56.7314C205.418 55.2011 200.612 52.6533 200.612 45.5148C200.612 36.8459 209.207 33.6445 216.565 33.6445L216.557 33.6406Z" fill="#474747"/>
</svg>
